<svg width="1440" height="241" viewBox="0 0 1440 241" fill="none" xmlns="http://www.w3.org/2000/svg">
<path d="M-96 41.32L-59.3067 29.032C-22.6133 16.9147 50.7733 -7.66128 123.819 3.26139C197.035 14.0134 269.739 60.0933 342.955 62.312C416 64.7013 489.387 23.0587 562.432 30.7387C635.648 38.4187 708.352 95.4213 781.568 120.339C854.613 145.427 928 138.6 1001.05 130.579C1074.26 122.728 1146.97 113.512 1220.18 92.0081C1293.23 70.3334 1366.61 36.2 1403.31 19.1334L1440 2.0667V242.707H1403.31C1366.61 242.707 1293.23 242.707 1220.18 242.707C1146.97 242.707 1074.26 242.707 1001.05 242.707C928 242.707 854.613 242.707 781.568 242.707C708.352 242.707 635.648 242.707 562.432 242.707C489.387 242.707 416 242.707 342.955 242.707C269.739 242.707 197.035 242.707 123.819 242.707C50.7733 242.707 -22.6133 242.707 -59.3067 242.707H-96V41.32Z" fill="#5B2464"/>
</svg>
