<svg width="1440" height="195" viewBox="0 0 1440 195" fill="none" xmlns="http://www.w3.org/2000/svg">
<path d="M-96 75.5333L-59.3067 80.1414C-22.6133 84.5787 50.7733 93.7947 123.819 75.0214C197.035 56.248 269.739 9.48532 342.955 1.80532C416 -5.87468 489.387 25.528 562.432 41.7414C635.648 57.9547 708.352 58.9787 781.568 52.152C854.613 45.3253 928 30.648 1001.05 19.5547C1074.26 8.46137 1146.97 0.952032 1220.18 12.728C1293.23 24.3334 1366.61 55.0533 1403.31 70.4133L1440 85.7733V196.707H1403.31C1366.61 196.707 1293.23 196.707 1220.18 196.707C1146.97 196.707 1074.26 196.707 1001.05 196.707C928 196.707 854.613 196.707 781.568 196.707C708.352 196.707 635.648 196.707 562.432 196.707C489.387 196.707 416 196.707 342.955 196.707C269.739 196.707 197.035 196.707 123.819 196.707C50.7733 196.707 -22.6133 196.707 -59.3067 196.707H-96V75.5333Z" fill="#672C7D"/>
</svg>
