<svg width="1440" height="238" viewBox="0 0 1440 238" fill="none" xmlns="http://www.w3.org/2000/svg">
<path d="M-96 31.4934L-59.3067 41.2214C-22.6133 50.7787 50.7733 70.2347 123.819 68.6987C197.035 67.3333 269.739 45.1467 342.955 26.7147C416 8.11205 489.387 -6.56528 562.432 6.23472C635.648 19.0347 708.352 59.312 781.568 82.6934C854.613 106.075 928 112.219 1001.05 93.2747C1074.26 74.1601 1146.97 29.7867 1220.18 11.8667C1293.23 -6.0533 1366.61 2.48003 1403.31 6.7467L1440 11.0134V239.707H1403.31C1366.61 239.707 1293.23 239.707 1220.18 239.707C1146.97 239.707 1074.26 239.707 1001.05 239.707C928 239.707 854.613 239.707 781.568 239.707C708.352 239.707 635.648 239.707 562.432 239.707C489.387 239.707 416 239.707 342.955 239.707C269.739 239.707 197.035 239.707 123.819 239.707C50.7733 239.707 -22.6133 239.707 -59.3067 239.707H-96V31.4934Z" fill="#4D1D4E"/>
</svg>
