<svg width="1440" height="106" viewBox="0 0 1440 106" fill="none" xmlns="http://www.w3.org/2000/svg">
<path d="M-96 0.186646L-59.3067 9.91467C-22.6133 19.472 50.7733 38.928 123.819 50.0213C197.035 61.1147 269.739 63.8453 342.955 62.1386C416 60.432 489.387 54.288 562.432 55.6533C635.648 57.0186 708.352 66.2346 781.568 58.2133C854.613 50.192 928 25.2746 1001.05 16.0586C1074.26 7.01329 1146.97 13.84 1220.18 18.448C1293.23 22.8853 1366.61 25.2746 1403.31 26.2986L1440 27.4933V107.707H1403.31C1366.61 107.707 1293.23 107.707 1220.18 107.707C1146.97 107.707 1074.26 107.707 1001.05 107.707C928 107.707 854.613 107.707 781.568 107.707C708.352 107.707 635.648 107.707 562.432 107.707C489.387 107.707 416 107.707 342.955 107.707C269.739 107.707 197.035 107.707 123.819 107.707C50.7733 107.707 -22.6133 107.707 -59.3067 107.707H-96V0.186646Z" fill="#764FD2"/>
</svg>
