<svg width="1440" height="149" viewBox="0 0 1440 149" fill="none" xmlns="http://www.w3.org/2000/svg">
<path d="M-96 0.520081L-59.3067 17.5867C-22.6133 34.6534 50.7733 68.7868 123.819 76.8081C197.035 84.6588 269.739 66.5681 342.955 68.2748C416 69.9814 489.387 91.4854 562.432 99.8481C635.648 108.04 708.352 102.92 781.568 90.1201C854.613 77.3201 928 56.8401 1001.05 48.8187C1074.26 40.9681 1146.97 45.4054 1220.18 40.2854C1293.23 35.1654 1366.61 20.4881 1403.31 12.9787L1440 5.64008V150.707H1403.31C1366.61 150.707 1293.23 150.707 1220.18 150.707C1146.97 150.707 1074.26 150.707 1001.05 150.707C928 150.707 854.613 150.707 781.568 150.707C708.352 150.707 635.648 150.707 562.432 150.707C489.387 150.707 416 150.707 342.955 150.707C269.739 150.707 197.035 150.707 123.819 150.707C50.7733 150.707 -22.6133 150.707 -59.3067 150.707H-96V0.520081Z" fill="#7542B4"/>
</svg>
