<svg width="1440" height="296" viewBox="0 0 1440 296" fill="none" xmlns="http://www.w3.org/2000/svg">
<path d="M-96 82.6666L-59.3067 64.7466C-22.6133 46.8266 50.7733 10.9866 123.819 2.45331C197.035 -6.08002 269.739 12.6933 342.955 42.2186C416 71.9146 489.387 112.192 562.432 109.461C635.648 106.56 708.352 60.48 781.568 63.04C854.613 65.6 928 116.8 1001.05 138.475C1074.26 159.979 1146.97 152.128 1220.18 137.621C1293.23 123.115 1366.61 101.952 1403.31 91.5413L1440 80.96V297.707H1403.31C1366.61 297.707 1293.23 297.707 1220.18 297.707C1146.97 297.707 1074.26 297.707 1001.05 297.707C928 297.707 854.613 297.707 781.568 297.707C708.352 297.707 635.648 297.707 562.432 297.707C489.387 297.707 416 297.707 342.955 297.707C269.739 297.707 197.035 297.707 123.819 297.707C50.7733 297.707 -22.6133 297.707 -59.3067 297.707H-96V82.6666Z" fill="#1E0D18"/>
</svg>
