<svg width="1440" height="229" viewBox="0 0 1440 229" fill="none" xmlns="http://www.w3.org/2000/svg">
<path d="M-96 7.13331L-59.3067 27.9547C-22.6133 48.6053 50.7733 90.248 123.819 108.68C197.035 127.112 269.739 122.675 342.955 119.773C416 116.872 489.387 115.848 562.432 113.459C635.648 111.24 708.352 107.827 781.568 100.488C854.613 92.9787 928 81.7147 1001.05 74.888C1074.26 68.0613 1146.97 65.672 1220.18 54.0666C1293.23 42.4613 1366.61 21.2987 1403.31 10.888L1440 0.306641V230.707H1403.31C1366.61 230.707 1293.23 230.707 1220.18 230.707C1146.97 230.707 1074.26 230.707 1001.05 230.707C928 230.707 854.613 230.707 781.568 230.707C708.352 230.707 635.648 230.707 562.432 230.707C489.387 230.707 416 230.707 342.955 230.707C269.739 230.707 197.035 230.707 123.819 230.707C50.7733 230.707 -22.6133 230.707 -59.3067 230.707H-96V7.13331Z" fill="#3E1839"/>
</svg>
