<svg width="1440" height="181" viewBox="0 0 1440 181" fill="none" xmlns="http://www.w3.org/2000/svg">
<path d="M-96 0.0933228L-59.3067 12.8933C-22.6133 25.6933 50.7733 51.2933 123.819 61.5333C197.035 71.7733 269.739 66.6533 342.955 53.3413C416 39.8587 489.387 18.3546 562.432 23.6453C635.648 29.1066 708.352 61.5333 781.568 72.2853C854.613 83.208 928 72.2853 1001.05 64.0933C1074.26 55.9013 1146.97 50.0986 1220.18 57.7786C1293.23 65.4586 1366.61 86.6213 1403.31 97.032L1440 107.613V182.707H1403.31C1366.61 182.707 1293.23 182.707 1220.18 182.707C1146.97 182.707 1074.26 182.707 1001.05 182.707C928 182.707 854.613 182.707 781.568 182.707C708.352 182.707 635.648 182.707 562.432 182.707C489.387 182.707 416 182.707 342.955 182.707C269.739 182.707 197.035 182.707 123.819 182.707C50.7733 182.707 -22.6133 182.707 -59.3067 182.707H-96V0.0933228Z" fill="#703697"/>
</svg>
