<svg width="1440" height="75" viewBox="0 0 1440 75" fill="none" xmlns="http://www.w3.org/2000/svg">
<path d="M-96 10.1466L-59.3067 16.4613C-22.6133 22.6053 50.7733 35.2347 123.819 38.648C197.035 42.0613 269.739 36.2586 342.955 31.48C416 26.7013 489.387 22.6053 562.432 17.3147C635.648 11.8533 708.352 5.02664 781.568 2.46664C854.613 -0.0933643 928 1.61332 1001.05 1.95466C1074.26 2.12532 1146.97 1.1013 1220.18 0.759969C1293.23 0.418636 1366.61 1.10128 1403.31 1.27195L1440 1.6133V76.7066H1403.31C1366.61 76.7066 1293.23 76.7066 1220.18 76.7066C1146.97 76.7066 1074.26 76.7066 1001.05 76.7066C928 76.7066 854.613 76.7066 781.568 76.7066C708.352 76.7066 635.648 76.7066 562.432 76.7066C489.387 76.7066 416 76.7066 342.955 76.7066C269.739 76.7066 197.035 76.7066 123.819 76.7066C50.7733 76.7066 -22.6133 76.7066 -59.3067 76.7066H-96V10.1466Z" fill="#715DF2"/>
</svg>
