<svg width="1440" height="266" viewBox="0 0 1440 266" fill="none" xmlns="http://www.w3.org/2000/svg">
<path d="M-96 139.707L-59.3067 132.368C-22.6133 124.859 50.7733 110.181 123.819 94.1387C197.035 78.2667 269.739 61.2 342.955 56.08C416 50.96 489.387 57.7867 562.432 42.4267C635.648 27.0667 708.352 -10.4799 781.568 3.51473C854.613 17.3387 928 82.8747 1001.05 82.5334C1074.26 82.192 1146.97 16.3147 1220.18 2.83202C1293.23 -10.48 1366.61 28.7734 1403.31 48.4L1440 68.0267V267.707H1403.31C1366.61 267.707 1293.23 267.707 1220.18 267.707C1146.97 267.707 1074.26 267.707 1001.05 267.707C928 267.707 854.613 267.707 781.568 267.707C708.352 267.707 635.648 267.707 562.432 267.707C489.387 267.707 416 267.707 342.955 267.707C269.739 267.707 197.035 267.707 123.819 267.707C50.7733 267.707 -22.6133 267.707 -59.3067 267.707H-96V139.707Z" fill="#2E1328"/>
</svg>
