<svg width="1440" height="456" viewBox="0 0 1440 456" fill="none" xmlns="http://www.w3.org/2000/svg">
<g filter="url(#filter0_d_137_55)">
<path d="M-96 87.36L-59.3067 116.032C-22.6133 144.875 50.7733 202.219 123.819 227.307C197.035 252.395 269.739 244.885 342.955 205.973C416 167.061 489.387 96.4053 562.432 98.4533C635.648 100.501 708.352 174.912 781.568 177.301C854.613 179.52 928 109.547 1001.05 108.352C1074.26 107.328 1146.97 174.912 1220.18 168.427C1293.23 161.941 1366.61 81.0454 1403.31 40.768L1440 0.320007V457.707H1403.31C1366.61 457.707 1293.23 457.707 1220.18 457.707C1146.97 457.707 1074.26 457.707 1001.05 457.707C928 457.707 854.613 457.707 781.568 457.707C708.352 457.707 635.648 457.707 562.432 457.707C489.387 457.707 416 457.707 342.955 457.707C269.739 457.707 197.035 457.707 123.819 457.707C50.7733 457.707 -22.6133 457.707 -59.3067 457.707H-96V87.36Z" fill="#090105"/>
<path d="M123.657 227.78L123.656 227.78C50.5179 202.66 -22.9332 145.259 -59.6157 116.425L-96 87.9945V457.707H-59.3067H123.819H342.955H562.432H781.568H1001.05H1220.18H1403.31H1439.5V457.207M123.657 227.78L123.819 227.307C197.035 252.395 269.739 244.885 342.955 205.973C365.092 194.18 387.261 179.472 409.443 164.755C460.451 130.912 511.524 97.026 562.432 98.4533C599.126 99.4798 635.692 118.682 672.258 137.885C708.652 156.997 745.046 176.109 781.568 177.301C818.977 178.438 856.476 160.639 893.972 142.842C929.691 125.888 965.409 108.935 1001.05 108.352M123.657 227.78C197.016 252.917 269.864 245.385 343.189 206.415L343.19 206.415C361.473 196.675 379.773 184.952 398.067 172.887C401.953 170.324 405.839 167.746 409.724 165.168C424.136 155.606 438.544 146.047 452.953 137.28C489.551 115.015 526.051 97.9335 562.418 98.9531C598.888 99.9733 635.259 119.02 671.768 138.192L672.091 138.362C708.435 157.448 744.915 176.605 781.552 177.801L781.553 177.801C818.218 178.915 854.938 161.912 891.521 144.558C892.393 144.145 893.265 143.731 894.136 143.317C929.897 126.344 965.527 109.433 1001.05 108.852M123.657 227.78L1001.05 108.852M1439.5 457.207H1440V1.06421L1439.5 1.61538M1439.5 457.207V1.61538M1439.5 457.207H1403.31H1403.09H1402.88H1402.66H1402.44H1402.22H1402H1401.78H1401.56H1401.34H1401.11H1400.89H1400.67H1400.44H1400.22H1399.99H1399.76H1399.53H1399.3H1399.07H1398.84H1398.61H1398.38H1398.14H1397.91H1397.67H1397.44H1397.2H1396.96H1396.73H1396.49H1396.25H1396.01H1395.76H1395.52H1395.28H1395.04H1394.79H1394.55H1394.3H1394.05H1393.8H1393.56H1393.31H1393.06H1392.81H1392.56H1392.3H1392.05H1391.8H1391.54H1391.29H1391.03H1390.77H1390.52H1390.26H1390H1389.74H1389.48H1389.22H1388.95H1388.69H1388.43H1388.16H1387.9H1387.63H1387.37H1387.1H1386.83H1386.56H1386.29H1386.02H1385.75H1385.48H1385.21H1384.94H1384.66H1384.39H1384.11H1383.84H1383.56H1383.28H1383.01H1382.73H1382.45H1382.17H1381.89H1381.61H1381.32H1381.04H1380.76H1380.47H1380.19H1379.9H1379.62H1379.33H1379.04H1378.75H1378.46H1378.17H1377.88H1377.59H1377.3H1377.01H1376.72H1376.42H1376.13H1375.83H1375.54H1375.24H1374.94H1374.65H1374.35H1374.05H1373.75H1373.45H1373.15H1372.85H1372.54H1372.24H1371.94H1371.63H1371.33H1371.02H1370.72H1370.41H1370.1H1369.79H1369.49H1369.18H1368.87H1368.56H1368.24H1367.93H1367.62H1367.31H1366.99H1366.68H1366.36H1366.05H1365.73H1365.42H1365.1H1364.78H1364.46H1364.14H1363.82H1363.5H1363.18H1362.86H1362.54H1362.22H1361.89H1361.57H1361.25H1360.92H1360.6H1360.27H1359.94H1359.61H1359.29H1358.96H1358.63H1358.3H1357.97H1357.64H1357.31H1356.98H1356.64H1356.31H1355.98H1355.64H1355.31H1354.97H1354.64H1354.3H1353.96H1353.63H1353.29H1352.95H1352.61H1352.27H1351.93H1351.59H1351.25H1350.91H1350.56H1350.22H1349.88H1349.53H1349.19H1348.85H1348.5H1348.15H1347.81H1347.46H1347.11H1346.76H1346.42H1346.07H1345.72H1345.37H1345.02H1344.67H1344.31H1343.96H1343.61H1343.26H1342.9H1342.55H1342.19H1341.84H1341.48H1341.13H1340.77H1340.41H1340.06H1339.7H1339.34H1338.98H1338.62H1338.26H1337.9H1337.54H1337.18H1336.82H1336.45H1336.09H1335.73H1335.36H1335H1334.64H1334.27H1333.9H1333.54H1333.17H1332.81H1332.44H1332.07H1331.7H1331.33H1330.96H1330.6H1330.23H1329.85H1329.48H1329.11H1328.74H1328.37H1328H1327.62H1327.25H1326.88H1326.5H1326.13H1325.75H1325.38H1325H1324.62H1324.25H1323.87H1323.49H1323.11H1322.74H1322.36H1321.98H1321.6H1321.22H1320.84H1320.46H1320.08H1319.69H1319.31H1318.93H1318.55H1318.16H1317.78H1317.4H1317.01H1316.63H1316.24H1315.86H1315.47H1315.08H1314.7H1314.31H1313.92H1313.54H1313.15H1312.76H1312.37H1311.98H1311.59H1311.2H1310.81H1310.42H1310.03H1309.64H1309.25H1308.86H1308.46H1308.07H1307.68H1307.29H1306.89H1306.5H1306.1H1305.71H1305.31H1304.92H1304.52H1304.13H1303.73H1303.33H1302.94H1302.54H1302.14H1301.74H1301.35H1300.95H1300.55H1300.15H1299.75H1299.35H1298.95H1298.55H1298.15H1297.75H1297.35H1296.95H1296.54H1296.14H1295.74H1295.34H1294.93H1294.53H1294.13H1293.72H1293.32H1292.91H1292.51H1292.1H1291.7H1291.29H1290.89H1290.48H1290.07H1289.67H1289.26H1288.85H1288.45H1288.04H1287.63H1287.22H1286.81H1286.41H1286H1285.59H1285.18H1284.77H1284.36H1283.95H1283.54H1283.13H1282.72H1282.31H1281.89H1281.48H1281.07H1280.66H1280.25H1279.83H1279.42H1279.01H1278.59H1278.18H1277.77H1277.35H1276.94H1276.53H1276.11H1275.7H1275.28H1274.87H1274.45H1274.04H1273.62H1273.2H1272.79H1272.37H1271.95H1271.54H1271.12H1270.7H1270.29H1269.87H1269.45H1269.03H1268.62H1268.2H1267.78H1267.36H1266.94H1266.52H1266.1H1265.68H1265.26H1264.85H1264.43H1264.01H1263.59H1263.16H1262.74H1262.32H1261.9H1261.48H1261.06H1260.64H1260.22H1259.8H1259.38H1258.95H1258.53H1258.11H1257.69H1257.27H1256.84H1256.42H1256H1255.57H1255.15H1254.73H1254.31H1253.88H1253.46H1253.03H1252.61H1252.19H1251.76H1251.34H1250.91H1250.49H1250.07H1249.64H1249.22H1248.79H1248.37H1247.94H1247.52H1247.09H1246.67H1246.24H1245.82H1245.39H1244.96H1244.54H1244.11H1243.69H1243.26H1242.84H1242.41H1241.98H1241.56H1241.13H1240.7H1240.28H1239.85H1239.42H1239H1238.57H1238.14H1237.72H1237.29H1236.86H1236.44H1236.01H1235.58H1235.15H1234.73H1234.3H1233.87H1233.44H1233.02H1232.59H1232.16H1231.73H1231.31H1230.88H1230.45H1230.02H1229.6H1229.17H1228.74H1228.31H1227.89H1227.46H1227.03H1226.6H1226.17H1225.75H1225.32H1224.89H1224.46H1224.03H1223.61H1223.18H1222.75H1222.32H1221.89H1221.47H1221.04H1220.61H1220.18H1219.75H1219.32H1218.89H1218.47H1218.04H1217.61H1217.18H1216.75H1216.32H1215.89H1215.46H1215.03H1214.61H1214.18H1213.75H1213.32H1212.89H1212.46H1212.03H1211.6H1211.17H1210.75H1210.32H1209.89H1209.46H1209.03H1208.6H1208.17H1207.75H1207.32H1206.89H1206.46H1206.03H1205.6H1205.17H1204.74H1204.32H1203.89H1203.46H1203.03H1202.6H1202.17H1201.74H1201.32H1200.89H1200.46H1200.03H1199.6H1199.17H1198.75H1198.32H1197.89H1197.46H1197.03H1196.6H1196.17H1195.75H1195.32H1194.89H1194.46H1194.03H1193.6H1193.18H1192.75H1192.32H1191.89H1191.46H1191.03H1190.61H1190.18H1189.75H1189.32H1188.89H1188.46H1188.04H1187.61H1187.18H1186.75H1186.32H1185.9H1185.47H1185.04H1184.61H1184.18H1183.75H1183.33H1182.9H1182.47H1182.04H1181.61H1181.19H1180.76H1180.33H1179.9H1179.47H1179.04H1178.62H1178.19H1177.76H1177.33H1176.9H1176.48H1176.05H1175.62H1175.19H1174.76H1174.34H1173.91H1173.48H1173.05H1172.62H1172.2H1171.77H1171.34H1170.91H1170.48H1170.06H1169.63H1169.2H1168.77H1168.34H1167.92H1167.49H1167.06H1166.63H1166.21H1165.78H1165.35H1164.92H1164.49H1164.07H1163.64H1163.21H1162.78H1162.35H1161.93H1161.5H1161.07H1160.64H1160.22H1159.79H1159.36H1158.93H1158.5H1158.08H1157.65H1157.22H1156.79H1156.37H1155.94H1155.51H1155.08H1154.65H1154.23H1153.8H1153.37H1152.94H1152.52H1152.09H1151.66H1151.23H1150.8H1150.38H1149.95H1149.52H1149.09H1148.67H1148.24H1147.81H1147.38H1146.96H1146.53H1146.1H1145.67H1145.24H1144.82H1144.39H1143.96H1143.53H1143.11H1142.68H1142.25H1141.82H1141.4H1140.97H1140.54H1140.11H1139.69H1139.26H1138.83H1138.4H1137.98H1137.55H1137.12H1136.69H1136.27H1135.84H1135.41H1134.98H1134.55H1134.13H1133.7H1133.27H1132.84H1132.42H1131.99H1131.56H1131.13H1130.71H1130.28H1129.85H1129.42H1129H1128.57H1128.14H1127.71H1127.29H1126.86H1126.43H1126H1125.58H1125.15H1124.72H1124.29H1123.87H1123.44H1123.01H1122.58H1122.16H1121.73H1121.3H1120.87H1120.45H1120.02H1119.59H1119.16H1118.74H1118.31H1117.88H1117.45H1117.03H1116.6H1116.17H1115.74H1115.32H1114.89H1114.46H1114.03H1113.61H1113.18H1112.75H1112.32H1111.9H1111.47H1111.04H1110.61H1110.19H1109.76H1109.33H1108.9H1108.48H1108.05H1107.62H1107.19H1106.77H1106.34H1105.91H1105.48H1105.06H1104.63H1104.2H1103.77H1103.35H1102.92H1102.49H1102.06H1101.64H1101.21H1100.78H1100.35H1099.93H1099.5H1099.07H1098.64H1098.22H1097.79H1097.36H1096.93H1096.51H1096.08H1095.65H1095.22H1094.8H1094.37H1093.94H1093.51H1093.09H1092.66H1092.23H1091.8H1091.38H1090.95H1090.52H1090.09H1089.66H1089.24H1088.81H1088.38H1087.95H1087.53H1087.1H1086.67H1086.24H1085.82H1085.39H1084.96H1084.53H1084.11H1083.68H1083.25H1082.82H1082.4H1081.97H1081.54H1081.11H1080.69H1080.26H1079.83H1079.4H1078.98H1078.55H1078.12H1077.69H1077.26H1076.84H1076.41H1075.98H1075.55H1075.13H1074.7H1074.27H1073.84H1073.42H1072.99H1072.56H1072.13H1071.71H1071.28H1070.85H1070.42H1069.99H1069.57H1069.14H1068.71H1068.28H1067.86H1067.43H1067H1066.57H1066.14H1065.72H1065.29H1064.86H1064.43H1064.01H1063.58H1063.15H1062.72H1062.29H1061.87H1061.44H1061.01H1060.58H1060.16H1059.73H1059.3H1058.87H1058.44H1058.02H1057.59H1057.16H1056.73H1056.31H1055.88H1055.45H1055.02H1054.59H1054.17H1053.74H1053.31H1052.88H1052.45H1052.03H1051.6H1051.17H1050.74H1050.31H1049.89H1049.46H1049.03H1048.6H1048.17H1047.75H1047.32H1046.89H1046.46H1046.03H1045.61H1045.18H1044.75H1044.32H1043.89H1043.47H1043.04H1042.61H1042.18H1041.75H1041.33H1040.9H1040.47H1040.04H1039.61H1039.19H1038.76H1038.33H1037.9H1037.47H1037.04H1036.62H1036.19H1035.76H1035.33H1034.9H1034.48H1034.05H1033.62H1033.19H1032.76H1032.33H1031.91H1031.48H1031.05H1030.62H1030.19H1029.76H1029.34H1028.91H1028.48H1028.05H1027.62H1027.19H1026.77H1026.34H1025.91H1025.48H1025.05H1024.62H1024.2H1023.77H1023.34H1022.91H1022.48H1022.05H1021.62H1021.2H1020.77H1020.34H1019.91H1019.48H1019.05H1018.62H1018.2H1017.77H1017.34H1016.91H1016.48H1016.05H1015.62H1015.2H1014.77H1014.34H1013.91H1013.48H1013.05H1012.62H1012.2H1011.77H1011.34H1010.91H1010.48H1010.05H1009.62H1009.19H1008.77H1008.34H1007.91H1007.48H1007.05H1006.62H1006.19H1005.76H1005.33H1004.91H1004.48H1004.05H1003.62H1003.19H1002.76H1002.33H1001.9H1001.47H1001.05H1000.62H1000.19H999.761H999.333H998.905H998.477H998.049H997.621H997.193H996.765H996.337H995.909H995.481H995.052H994.624H994.196H993.768H993.34H992.912H992.484H992.056H991.627H991.199H990.771H990.343H989.915H989.487H989.058H988.63H988.202H987.774H987.345H986.917H986.489H986.061H985.632H985.204H984.776H984.348H983.919H983.491H983.063H982.635H982.206H981.778H981.349H980.921H980.493H980.064H979.636H979.208H978.779H978.351H977.923H977.494H977.066H976.638H976.209H975.781H975.352H974.924H974.495H974.067H973.639H973.21H972.782H972.353H971.925H971.496H971.068H970.639H970.211H969.782H969.354H968.925H968.497H968.068H967.64H967.211H966.783H966.354H965.926H965.497H965.069H964.64H964.212H963.783H963.354H962.926H962.497H962.069H961.64H961.212H960.783H960.354H959.926H959.497H959.069H958.64H958.211H957.783H957.354H956.925H956.497H956.068H955.64H955.211H954.782H954.354H953.925H953.496H953.068H952.639H952.21H951.781H951.353H950.924H950.495H950.067H949.638H949.209H948.78H948.352H947.923H947.494H947.065H946.637H946.208H945.779H945.35H944.922H944.493H944.064H943.635H943.207H942.778H942.349H941.92H941.491H941.063H940.634H940.205H939.776H939.348H938.919H938.49H938.061H937.632H937.203H936.775H936.346H935.917H935.488H935.059H934.63H934.202H933.773H933.344H932.915H932.486H932.057H931.628H931.2H930.771H930.342H929.913H929.484H929.055H928.626H928.197H927.768H927.34H926.911H926.482H926.053H925.624H925.195H924.766H924.337H923.908H923.479H923.051H922.622H922.193H921.764H921.335H920.906H920.477H920.048H919.619H919.19H918.761H918.332H917.903H917.474H917.046H916.617H916.188H915.759H915.33H914.901H914.472H914.043H913.614H913.185H912.756H912.327H911.898H911.469H911.04H910.611H910.182H909.753H909.324H908.895H908.466H908.037H907.608H907.179H906.75H906.321H905.892H905.464H905.034H904.606H904.177H903.748H903.319H902.89H902.461H902.032H901.603H901.174H900.745H900.316H899.887H899.458H899.029H898.6H898.171H897.742H897.313H896.884H896.455H896.026H895.597H895.168H894.739H894.31H893.881H893.452H893.023H892.594H892.165H891.736H891.307H890.878H890.449H890.02H889.591H889.162H888.733H888.304H887.875H887.446H887.017H886.588H886.159H885.73H885.301H884.872H884.443H884.014H883.585H883.156H882.727H882.298H881.869H881.44H881.011H880.582H880.153H879.724H879.295H878.866H878.437H878.008H877.579H877.15H876.721H876.292H875.863H875.434H875.005H874.576H874.147H873.718H873.289H872.86H872.431H872.002H871.573H871.144H870.715H870.286H869.857H869.428H868.999H868.57H868.141H867.713H867.284H866.855H866.426H865.997H865.568H865.139H864.71H864.281H863.852H863.423H862.994H862.565H862.136H861.707H861.278H860.849H860.421H859.992H859.563H859.134H858.705H858.276H857.847H857.418H856.989H856.56H856.131H855.703H855.274H854.845H854.416H853.987H853.558H853.129H852.7H852.272H851.843H851.414H850.985H850.556H850.127H849.698H849.269H848.841H848.412H847.983H847.554H847.125H846.696H846.268H845.839H845.41H844.981H844.552H844.123H843.695H843.266H842.837H842.408H841.979H841.551H841.122H840.693H840.264H839.836H839.407H838.978H838.549H838.12H837.692H837.263H836.834H836.405H835.977H835.548H835.119H834.69H834.262H833.833H833.404H832.976H832.547H832.118H831.689H831.261H830.832H830.403H829.975H829.546H829.117H828.689H828.26H827.831H827.403H826.974H826.545H826.117H825.688H825.259H824.831H824.402H823.973H823.545H823.116H822.688H822.259H821.83H821.402H820.973H820.545H820.116H819.687H819.259H818.83H818.402H817.973H817.545H817.116H816.688H816.259H815.83H815.402H814.973H814.545H814.116H813.688H813.259H812.831H812.402H811.974H811.545H811.117H810.689H810.26H809.832H809.403H808.975H808.546H808.118H807.689H807.261H806.833H806.404H805.976H805.547H805.119H804.691H804.262H803.834H803.406H802.977H802.549H802.12H801.692H801.264H800.836H800.407H799.979H799.551H799.122H798.694H798.266H797.837H797.409H796.981H796.553H796.124H795.696H795.268H794.84H794.411H793.983H793.555H793.127H792.699H792.27H791.842H791.414H790.986H790.558H790.13H789.701H789.273H788.845H788.417H787.989H787.561H787.133H786.705H786.277H785.848H785.42H784.992H784.564H784.136H783.708H783.28H782.852H782.424H781.996H781.568H781.139H780.71H780.281H779.852H779.423H778.994H778.565H778.136H777.708H777.279H776.85H776.421H775.992H775.563H775.134H774.706H774.277H773.848H773.419H772.99H772.562H772.133H771.704H771.275H770.847H770.418H769.989H769.56H769.132H768.703H768.274H767.846H767.417H766.989H766.56H766.131H765.703H765.274H764.846H764.417H763.988H763.56H763.131H762.703H762.274H761.846H761.417H760.989H760.56H760.132H759.703H759.275H758.846H758.418H757.99H757.561H757.133H756.704H756.276H755.847H755.419H754.991H754.562H754.134H753.706H753.277H752.849H752.421H751.992H751.564H751.136H750.708H750.279H749.851H749.423H748.995H748.566H748.138H747.71H747.282H746.853H746.425H745.997H745.569H745.141H744.713H744.284H743.856H743.428H743H742.572H742.144H741.716H741.287H740.859H740.431H740.003H739.575H739.147H738.719H738.291H737.863H737.435H737.007H736.579H736.151H735.723H735.295H734.867H734.439H734.011H733.583H733.155H732.727H732.299H731.871H731.443H731.015H730.587H730.159H729.731H729.303H728.875H728.448H728.02H727.592H727.164H726.736H726.308H725.88H725.452H725.025H724.597H724.169H723.741H723.313H722.885H722.458H722.03H721.602H721.174H720.746H720.319H719.891H719.463H719.035H718.607H718.18H717.752H717.324H716.896H716.469H716.041H715.613H715.185H714.758H714.33H713.902H713.474H713.047H712.619H712.191H711.764H711.336H710.908H710.481H710.053H709.625H709.198H708.77H708.342H707.915H707.487H707.059H706.632H706.204H705.776H705.349H704.921H704.493H704.066H703.638H703.211H702.783H702.355H701.928H701.5H701.072H700.645H700.217H699.79H699.362H698.934H698.507H698.079H697.652H697.224H696.797H696.369H695.941H695.514H695.086H694.659H694.231H693.804H693.376H692.948H692.521H692.093H691.666H691.238H690.811H690.383H689.956H689.528H689.101H688.673H688.245H687.818H687.39H686.963H686.535H686.108H685.68H685.253H684.825H684.398H683.97H683.543H683.115H682.688H682.26H681.833H681.405H680.978H680.55H680.123H679.695H679.268H678.84H678.413H677.985H677.558H677.13H676.703H676.275H675.848H675.42H674.993H674.565H674.138H673.71H673.283H672.855H672.428H672H671.573H671.145H670.718H670.29H669.863H669.435H669.008H668.58H668.153H667.725H667.298H666.87H666.443H666.015H665.588H665.16H664.732H664.305H663.878H663.45H663.022H662.595H662.167H661.74H661.312H660.885H660.457H660.03H659.602H659.175H658.747H658.32H657.892H657.465H657.037H656.61H656.182H655.755H655.327H654.9H654.472H654.044H653.617H653.189H652.762H652.334H651.907H651.479H651.052H650.624H650.197H649.769H649.341H648.914H648.486H648.059H647.631H647.204H646.776H646.348H645.921H645.493H645.066H644.638H644.21H643.783H643.355H642.928H642.5H642.072H641.645H641.217H640.79H640.362H639.934H639.507H639.079H638.651H638.224H637.796H637.368H636.941H636.513H636.086H635.658H635.23H634.802H634.375H633.947H633.519H633.092H632.664H632.236H631.809H631.381H630.953H630.526H630.098H629.67H629.242H628.815H628.387H627.959H627.531H627.104H626.676H626.248H625.82H625.393H624.965H624.537H624.109H623.682H623.254H622.826H622.398H621.97H621.542H621.115H620.687H620.259H619.831H619.403H618.975H618.548H618.12H617.692H617.264H616.836H616.408H615.98H615.552H615.125H614.697H614.269H613.841H613.413H612.985H612.557H612.129H611.701H611.273H610.845H610.417H609.989H609.561H609.133H608.705H608.277H607.849H607.421H606.993H606.565H606.137H605.709H605.281H604.853H604.425H603.997H603.569H603.141H602.713H602.284H601.856H601.428H601H600.572H600.144H599.716H599.288H598.859H598.431H598.003H597.575H597.147H596.718H596.29H595.862H595.434H595.005H594.577H594.149H593.721H593.292H592.864H592.436H592.008H591.579H591.151H590.723H590.294H589.866H589.438H589.009H588.581H588.153H587.724H587.296H586.867H586.439H586.011H585.582H585.154H584.725H584.297H583.868H583.44H583.011H582.583H582.154H581.726H581.297H580.869H580.44H580.012H579.583H579.155H578.726H578.297H577.869H577.44H577.012H576.583H576.154H575.726H575.297H574.868H574.44H574.011H573.582H573.153H572.725H572.296H571.867H571.438H571.01H570.581H570.152H569.723H569.295H568.866H568.437H568.008H567.579H567.15H566.721H566.293H565.864H565.435H565.006H564.577H564.148H563.719H563.29H562.861H562.432L1001.05 108.852M1439.5 1.61538V0.871172L1403.31 40.768L1402.8 41.3225C1365.94 81.7829 1292.89 161.971 1220.18 168.427C1182.18 171.793 1144.31 155.202 1106.44 138.609C1071.35 123.235 1036.26 107.86 1001.05 108.352M1439.5 1.61538L1403.68 41.104L1403.68 41.1048L1403.17 41.6659C1384.82 61.8012 1357.49 91.8024 1325.69 117.657C1293.61 143.744 1256.9 165.669 1220.23 168.925C1183.47 172.181 1146.87 156.843 1110.41 140.895C1109.03 140.292 1107.66 139.688 1106.28 139.085C1071.15 123.696 1036.15 108.361 1001.05 108.852M1001.05 108.352L1001.05 108.852M1001.05 108.352L1001.05 108.852C1001.05 108.852 1001.05 108.852 1001.05 108.852" stroke="black"/>
</g>
<defs>
<filter id="filter0_d_137_55" x="-100" y="0.320007" width="1544" height="465.387" filterUnits="userSpaceOnUse" color-interpolation-filters="sRGB">
<feFlood flood-opacity="0" result="BackgroundImageFix"/>
<feColorMatrix in="SourceAlpha" type="matrix" values="0 0 0 0 0 0 0 0 0 0 0 0 0 0 0 0 0 0 127 0" result="hardAlpha"/>
<feOffset dy="4"/>
<feGaussianBlur stdDeviation="2"/>
<feComposite in2="hardAlpha" operator="out"/>
<feColorMatrix type="matrix" values="0 0 0 0 0 0 0 0 0 0 0 0 0 0 0 0 0 0 0.25 0"/>
<feBlend mode="normal" in2="BackgroundImageFix" result="effect1_dropShadow_137_55"/>
<feBlend mode="normal" in="SourceGraphic" in2="effect1_dropShadow_137_55" result="shape"/>
</filter>
</defs>
</svg>
